Coordinates
version=1
nRows=4
nColumns=63
inDegrees=yes

Units are S.I. units (second, meters, Newtons, ...)
If the header above contains a line with 'inDegrees', this indicates whether rotational values are in degrees (yes) or radians (no).

endheader
time	pelvis_tilt	pelvis_list	pelvis_rotation	pelvis_tx	pelvis_ty	pelvis_tz	hip_flexion_r	hip_adduction_r	hip_rotation_r	knee_angle_r	knee_angle_r_beta	ankle_angle_r	subtalar_angle_r	mtp_angle_r	hip_flexion_l	hip_adduction_l	hip_rotation_l	knee_angle_l	knee_angle_l_beta	ankle_angle_l	subtalar_angle_l	mtp_angle_l	L5_S1_Flex_Ext	L5_S1_Lat_Bending	L5_S1_axial_rotation	L4_L5_Flex_Ext	L4_L5_Lat_Bending	L4_L5_axial_rotation	L3_L4_Flex_Ext	L3_L4_Lat_Bending	L3_L4_axial_rotation	L2_L3_Flex_Ext	L2_L3_Lat_Bending	L2_L3_axial_rotation	L1_L2_Flex_Ext	L1_L2_Lat_Bending	L1_L2_axial_rotation	L1_T12_Flex_Ext	L1_T12_Lat_Bending	L1_T12_axial_rotation	Abs_r3	Abs_r2	Abs_r1	Abs_t1	Abs_t2	neck_flexion	neck_bending	neck_rotation	arm_flex_r	arm_add_r	arm_rot_r	elbow_flex_r	pro_sup_r	wrist_flex_r	wrist_dev_r	arm_flex_l	arm_add_l	arm_rot_l	elbow_flex_l	pro_sup_l	wrist_flex_l	wrist_dev_l
      3.71666667	      2.05519660	     -3.96083490	     93.60637895	      0.28385890	      0.91087178	      0.45260977	    -11.03326588	      2.45963486	     -3.42198745	      2.66237192	      0.04646716	     30.28753613	      1.73284866	      0.00000000	     -8.81103516	     -4.37911908	     -0.46681217	      1.99171495	      0.03476198	     36.46275390	      4.62277673	      0.00000000	     -0.25105554	      0.15711015	      0.65608122	     -0.46623525	      0.20895651	      0.69708630	     -0.41245915	      0.38199763	      0.69708630	     -0.28693138	      0.38199763	      0.57407107	     -0.23313018	      0.32037903	      0.53306599	     -0.14345314	      0.24336363	      0.49206092	     -1.79326463	      1.77726149	      3.64892692	      0.00000000	      0.00000000	     27.04309357	     -6.69687620	    -11.66714500	     13.84939760	    -38.68451568	    126.20892832	      3.30715427	     11.82955246	     -9.57323332	     -1.92874675	     13.59259923	    -44.64839099	     83.73367974	      9.60717769	     16.71703763	     -9.63760735	      0.67664571
      3.73333333	      1.99966984	     -4.09993518	     92.93640258	      0.28451251	      0.91094938	      0.45317318	    -10.48684460	      2.16868523	     -5.82280650	      3.43077367	      0.05987830	     31.06801375	      5.16650832	      0.00000000	     -8.64168961	     -4.20862047	     -0.55525147	      2.01853764	      0.03523013	     36.43425620	      3.94472743	      0.00000000	     -0.24261023	      0.15488847	      0.74767617	     -0.45055147	      0.20600166	      0.79440593	     -0.39858435	      0.37659581	      0.79440593	     -0.27727924	      0.37659581	      0.65421665	     -0.22528786	      0.31584856	      0.60748689	     -0.13862749	      0.23992223	      0.56075713	     -1.73294064	      1.75212930	      4.15835054	      0.00000000	      0.00000000	     27.01626136	     -6.70309171	    -11.45206577	     14.15086076	    -38.49700755	    133.04732045	      2.77567448	     11.26309468	     -9.53827964	     -1.26425369	     13.56737472	    -44.38118404	     82.99768422	      9.24136777	     19.09909587	     -9.76224327	      0.80148695
      3.75000000	      1.76121780	     -4.34726502	     92.81186431	      0.28489160	      0.91111101	      0.45442310	     -9.96520787	      1.89041391	     -6.45851440	      3.76727977	      0.06575144	     31.19873534	      5.60511176	      0.00000000	     -8.06872882	     -3.97772805	     -1.09132394	      2.36929042	      0.04135192	     36.57609427	      4.52197020	      0.00000000	     -0.23209679	      0.12788756	      0.75840105	     -0.43102695	      0.17009046	      0.80580111	     -0.38131182	      0.31094582	      0.80580111	     -0.26526342	      0.31094582	      0.66360092	     -0.21552508	      0.26078832	      0.61620085	     -0.13262011	      0.19809784	      0.56880079	     -1.65784418	      1.44668970	      4.21799911	      0.00000000	      0.00000000	     27.05218577	     -6.74635135	    -11.32704038	     14.28694783	    -38.11392133	    133.52218651	      2.31584743	     16.14761433	     -9.67077808	     -1.15050811	     13.82917019	    -44.15071484	     81.83693803	      8.94201097	     21.64903418	     -9.80255915	      0.65691465
      3.76666667	      1.56534014	     -4.75407623	     92.38564775	      0.28525330	      0.91146612	      0.45644109	     -9.06170075	      1.49973897	     -8.01669035	      4.37574890	      0.07637123	     31.62690630	      7.75656741	      0.00000000	     -7.32934918	     -3.71587637	     -1.76755915	      2.69312378	      0.04700388	     36.59978423	      4.85418151	      0.00000000	     -0.20902573	      0.11781711	      0.81581989	     -0.38818169	      0.15669676	      0.86680863	     -0.34340838	      0.28646053	      0.86680863	     -0.23889551	      0.28646053	      0.71384240	     -0.19410130	      0.24025266	      0.66285366	     -0.11943730	      0.18249871	      0.61186491	     -1.49304991	      1.33277075	      4.53734546	      0.00000000	      0.00000000	     27.14374761	     -6.65071701	    -10.54577928	     14.98551161	    -37.79684621	    139.04617101	      1.73491384	     17.64606975	     -9.66670735	     -1.13106682	     14.23233816	    -43.51493139	     80.44849175	      8.75275278	     22.07433506	     -9.85172213	      0.20701760
